<?xml version="1.0" encoding="utf-8"?>
<!-- Generator: Adobe Illustrator 23.0.2, SVG Export Plug-In . SVG Version: 6.00 Build 0)  -->
<svg version="1.1" id="Camada_1" xmlns="http://www.w3.org/2000/svg" xmlns:xlink="http://www.w3.org/1999/xlink" x="0px" y="0px"
	 viewBox="0 0 481 171" style="enable-background:new 0 0 481 171;" xml:space="preserve">
<style type="text/css">
	.st0{fill:#EEE30E;}
	.st1{fill:#FFFFFF;}
	.st2{fill:#13E559;}
	.st3{fill:#1B509A;}
	.st4{fill:#375DA7;}
	.st5{fill:url(#SVGID_1_);}
	.st6{opacity:0.28;fill:#9AC6FC;}
	.st7{opacity:0.7;fill:#9FCBFF;}
	.st8{fill:#39B5A9;}
	.st9{fill:#98E5DC;}
	.st10{fill:#F9BBC1;}
	.st11{opacity:0.17;fill:#F9BBC1;}
	.st12{fill:#03004D;}
	.st13{fill:#2440E4;}
	.st14{opacity:0.2;fill:#2440E4;}
	.st15{fill:#FF285A;}
	.st16{opacity:0.25;fill:#AF2045;}
	.st17{opacity:0.2;fill:#AF2045;}
	.st18{opacity:0.15;}
	.st19{fill:#AF2045;}
	.st20{opacity:0.36;fill:#F9BBC1;}
	.st21{opacity:0.77;fill:#2440E4;}
	.st22{opacity:0.44;fill:#03004D;}
	.st23{fill:#FFCB00;}
	.st24{fill:#2E78EC;}
	.st25{opacity:0.45;fill:#2E78EC;}
	.st26{opacity:0.31;fill:#2E78EC;}
	.st27{opacity:0.42;}
	.st28{opacity:0.52;fill:#FFCB00;}
	.st29{opacity:0.74;}
	.st30{fill:#12C649;}
	.st31{fill:#D81A36;}
	.st32{fill:#173051;}
	.st33{fill:#1D70AC;}
	.st34{filter:url(#Adobe_OpacityMaskFilter);}
	.st35{clip-path:url(#SVGID_3_);fill:url(#SVGID_5_);}
	.st36{clip-path:url(#SVGID_3_);mask:url(#SVGID_4_);fill:url(#SVGID_6_);}
	.st37{filter:url(#Adobe_OpacityMaskFilter_1_);}
	.st38{clip-path:url(#SVGID_8_);fill:url(#SVGID_10_);}
	.st39{clip-path:url(#SVGID_8_);mask:url(#SVGID_9_);fill:url(#SVGID_11_);}
</style>
<g>
	<path class="st32" d="M4.2,143.8h7.3c4.9,0,8,2.9,8,7.7c0,4.8-3.3,7.8-8,7.8H7.3v11.2H4.2V143.8z M11.2,156.6c3.2,0,5.1-2,5.1-5.1
		c0-3.1-1.9-5-5.1-5h-4v10.1H11.2z"/>
	<path class="st32" d="M31.7,153.2c-4.5,0-5.9,3.6-5.9,7.8v9.5h-3v-19.9h3v3.3c0.7-2,2.9-3.8,5.9-3.8V153.2z"/>
	<path class="st32" d="M43.4,150.1c6,0,10.4,4.5,10.4,10.4c0,6-4.4,10.4-10.4,10.4c-6,0-10.4-4.4-10.4-10.4
		C33,154.6,37.5,150.1,43.4,150.1 M43.4,168.3c4.3,0,7.3-3.2,7.3-7.7c0-4.4-3.1-7.7-7.3-7.7c-4.3,0-7.3,3.3-7.3,7.7
		C36.1,165,39.1,168.3,43.4,168.3"/>
	<path class="st32" d="M72.1,155.5c-0.8-0.8-2.9-2.5-5.9-2.5c-4.2,0-7.1,3.3-7.1,7.6c0,4.3,3.1,7.7,7.2,7.7c3.1,0,5.1-1.8,5.9-2.6
		l0.9,2.6c-0.8,0.8-3.2,2.8-7,2.8c-5.9,0-10.2-4.5-10.2-10.4s4.4-10.4,10.2-10.4c3.6,0,6,1.7,7,2.7L72.1,155.5z"/>
	<path class="st32" d="M76.3,163.1v-12.4h3v12.5c0,3.2,2,5.1,4.7,5.1c3.1,0,5.2-2.3,5.2-5.5v-12.1h3.1v19.9h-3v-2.9
		c-0.9,1.8-3.2,3.4-5.9,3.4C78.7,171,76.3,167.6,76.3,163.1"/>
	<path class="st32" d="M105.8,153.2c-4.5,0-5.9,3.6-5.9,7.8v9.5h-3v-19.9h3v3.3c0.7-2,2.9-3.8,5.9-3.8V153.2z"/>
	<path class="st32" d="M115.2,157.9c2.5,0,4.4,1,5.2,1.8v-2.4c0-2.8-1.9-4.4-4.8-4.4c-2.4,0-4.4,0.9-5.8,1.7l-1.2-2.2
		c1.3-0.8,4-2.2,7.3-2.2c5.4,0,7.6,3,7.6,7.3v13.1h-2.6l-0.3-1.7c-1,1.2-2.7,2.2-5.4,2.2c-4.4,0-7.6-2.8-7.6-6.6
		C107.6,160.6,110.7,157.9,115.2,157.9 M115.6,168.5c2.9,0,4.9-1.7,4.9-4.1c0-2.5-2-4.1-5-4.1c-3,0-5,1.8-5,4.1
		C110.6,166.7,112.6,168.5,115.6,168.5"/>
	<path class="st32" d="M146.2,170.5h-2.9v-3.1c-0.5,0.7-2.6,3.6-6.9,3.6c-5.7,0-9.7-4.3-9.7-10.4c0-6.1,3.8-10.5,9.5-10.5
		c4.1,0,6.4,2.7,7,3.7v-11h3.1V170.5z M136.5,152.9c-3.9,0-6.7,3.2-6.7,7.8c0,4.6,2.9,7.6,6.8,7.6c4.2,0,6.7-3.5,6.7-7.6
		C143.3,155.7,140.2,152.9,136.5,152.9"/>
	<path class="st32" d="M160.1,150.1c6,0,10.4,4.5,10.4,10.4c0,6-4.4,10.4-10.4,10.4c-6,0-10.4-4.4-10.4-10.4
		C149.7,154.6,154.2,150.1,160.1,150.1 M160.1,168.3c4.3,0,7.3-3.2,7.3-7.7c0-4.4-3.1-7.7-7.3-7.7c-4.3,0-7.3,3.3-7.3,7.7
		C152.8,165,155.8,168.3,160.1,168.3"/>
	<path class="st32" d="M182.9,153.2c-4.5,0-5.9,3.6-5.9,7.8v9.5h-3v-19.9h3v3.3c0.7-2,2.9-3.8,5.9-3.8V153.2z"/>
	<path class="st32" d="M187.4,143.5c1.2,0,2.1,0.9,2.1,2.1c0,1.2-0.9,2.1-2.1,2.1c-1.1,0-2.1-0.9-2.1-2.1
		C185.4,144.4,186.3,143.5,187.4,143.5 M185.9,150.6h3v19.9h-3V150.6z"/>
	<path class="st32" d="M200.1,157.9c2.5,0,4.4,1,5.2,1.8v-2.4c0-2.8-1.9-4.4-4.8-4.4c-2.4,0-4.4,0.9-5.8,1.7l-1.2-2.2
		c1.3-0.8,4-2.2,7.3-2.2c5.4,0,7.6,3,7.6,7.3v13.1h-2.6l-0.3-1.7c-1,1.2-2.7,2.2-5.4,2.2c-4.4,0-7.6-2.8-7.6-6.6
		C192.5,160.6,195.7,157.9,200.1,157.9 M200.6,168.5c2.9,0,4.9-1.7,4.9-4.1c0-2.5-2-4.1-5-4.1c-3,0-5,1.8-5,4.1
		C195.6,166.7,197.5,168.5,200.6,168.5"/>
	<path class="st32" d="M244.6,147.2l-2,2.1c-1.2-1.2-3.6-3.1-7.8-3.1c-6.2,0-10.4,4.7-10.4,11c0,6.5,4.4,11,10.3,11
		c4.5,0,7-2,7.8-2.8v-5.6h-6V157h8.9v9.7c-2.9,2.9-6.4,4.3-10.9,4.3c-7.6,0-13.5-5.7-13.5-13.8c0-7.8,5.7-13.9,13.5-13.9
		C240.1,143.3,243.2,145.7,244.6,147.2"/>
	<path class="st32" d="M258.4,150.1c5.8,0,9.4,4.2,9.4,10.2c0,0.1,0,0.5,0,0.9h-15.9c0,4.4,3,7.1,7.1,7.1c3.4,0,5.2-1.8,6.2-3.1
		l2,1.5c-1.1,1.9-3.7,4.3-8.2,4.3c-6,0-10.2-4.2-10.2-10.4C248.8,154.3,253.2,150.1,258.4,150.1 M264.8,159
		c-0.2-4.1-3.1-6.2-6.3-6.2c-3.2,0-6.2,2.5-6.4,6.2H264.8z"/>
	<path class="st32" d="M280.3,153.2c-4.5,0-5.9,3.6-5.9,7.8v9.5h-3v-19.9h3v3.3c0.7-2,2.9-3.8,5.9-3.8V153.2z"/>
	<path class="st32" d="M289.6,157.9c2.5,0,4.4,1,5.2,1.8v-2.4c0-2.8-1.9-4.4-4.8-4.4c-2.4,0-4.4,0.9-5.8,1.7l-1.2-2.2
		c1.3-0.8,4-2.2,7.3-2.2c5.4,0,7.6,3,7.6,7.3v13.1h-2.6l-0.3-1.7c-1,1.2-2.7,2.2-5.4,2.2c-4.4,0-7.6-2.8-7.6-6.6
		C282,160.6,285.2,157.9,289.6,157.9 M290.1,168.5c2.9,0,4.9-1.7,4.9-4.1c0-2.5-2-4.1-5-4.1c-3,0-5,1.8-5,4.1
		C285,166.7,287,168.5,290.1,168.5"/>
	<rect x="302.4" y="142.9" class="st32" width="3" height="27.6"/>
	<path class="st32" d="M337.9,170.5h-2.9v-3.1c-0.5,0.7-2.6,3.6-6.9,3.6c-5.7,0-9.7-4.3-9.7-10.4c0-6.1,3.8-10.5,9.5-10.5
		c4.1,0,6.4,2.7,7,3.7v-11h3.1V170.5z M328.2,152.9c-3.9,0-6.7,3.2-6.7,7.8c0,4.6,2.9,7.6,6.8,7.6c4.2,0,6.7-3.5,6.7-7.6
		C334.9,155.7,331.9,152.9,328.2,152.9"/>
	<path class="st32" d="M351.8,150.1c6,0,10.4,4.5,10.4,10.4c0,6-4.4,10.4-10.4,10.4c-6,0-10.4-4.4-10.4-10.4
		C341.4,154.6,345.9,150.1,351.8,150.1 M351.7,168.3c4.3,0,7.3-3.2,7.3-7.7c0-4.4-3.1-7.7-7.3-7.7c-4.3,0-7.3,3.3-7.3,7.7
		C344.5,165,347.5,168.3,351.7,168.3"/>
	<polygon class="st32" points="375.4,143.8 388.1,143.8 388.1,146.6 378.5,146.6 378.5,155.5 386.9,155.5 386.9,158.3 378.5,158.3 
		378.5,167.7 388.6,167.7 388.6,170.5 375.4,170.5 	"/>
	<path class="st32" d="M393.4,165.4c0.8,1.6,2.3,3.1,5,3.1c2,0,3.7-1.1,3.7-3.2c0-4.6-10-3-10-9.7c0-3.4,2.8-5.4,6.4-5.4
		c3.7,0,5.6,2.3,6.2,3.8l-2.2,1.3c-0.5-1.1-1.6-2.6-4.1-2.6c-1.8,0-3.3,1-3.3,2.8c0,4.5,10,2.8,10,9.7c0,3.5-2.9,5.9-6.8,5.9
		c-4.2,0-6-2.4-6.9-4.2L393.4,165.4z"/>
	<path class="st32" d="M408.6,146.5h3v4.2h4.4v2.6h-4.4v10.2c0,3.7,1.1,4.6,3.7,4.6c0.4,0,0.8,0,0.8,0v2.7c0,0-0.8,0.1-1.8,0.1
		c-4,0-5.7-2.6-5.7-7.1v-10.5h-2.3v-2.6h2.3V146.5z"/>
	<path class="st32" d="M425.7,157.9c2.5,0,4.4,1,5.2,1.8v-2.4c0-2.8-1.9-4.4-4.8-4.4c-2.4,0-4.4,0.9-5.8,1.7l-1.2-2.2
		c1.3-0.8,4-2.2,7.3-2.2c5.4,0,7.6,3,7.6,7.3v13.1h-2.6l-0.3-1.7c-1,1.2-2.7,2.2-5.4,2.2c-4.4,0-7.6-2.8-7.6-6.6
		C418,160.6,421.2,157.9,425.7,157.9 M426.1,168.5c2.9,0,4.9-1.7,4.9-4.1c0-2.5-2-4.1-5-4.1c-3,0-5,1.8-5,4.1
		C421.1,166.7,423,168.5,426.1,168.5"/>
	<path class="st32" d="M456.7,170.5h-2.9v-3.1c-0.5,0.7-2.6,3.6-6.9,3.6c-5.7,0-9.7-4.3-9.7-10.4c0-6.1,3.8-10.5,9.5-10.5
		c4.1,0,6.4,2.7,7,3.7v-11h3.1V170.5z M447,152.9c-3.9,0-6.7,3.2-6.7,7.8c0,4.6,2.9,7.6,6.8,7.6c4.2,0,6.7-3.5,6.7-7.6
		C453.7,155.7,450.7,152.9,447,152.9"/>
	<path class="st32" d="M470.6,150.1c6,0,10.4,4.5,10.4,10.4c0,6-4.4,10.4-10.4,10.4c-6,0-10.4-4.4-10.4-10.4
		C460.2,154.6,464.7,150.1,470.6,150.1 M470.5,168.3c4.3,0,7.3-3.2,7.3-7.7c0-4.4-3.1-7.7-7.3-7.7c-4.3,0-7.3,3.3-7.3,7.7
		C463.3,165,466.3,168.3,470.5,168.3"/>
	<path class="st32" d="M39.6,1.7c3.2,0,6.3,0.3,9.2,0.9c2.9,0.6,5.8,1.6,8.7,3.1c2.9,1.5,5.4,3.4,7.5,5.7c2.1,2.3,3.8,5.3,5.1,9.1
		c1.3,3.7,2,8,2,12.8c0,4.3-0.7,8.2-2,11.6c-1.3,3.4-3,6.2-5.1,8.4c-2.1,2.2-4.6,4-7.5,5.4c-2.9,1.4-5.8,2.5-8.8,3
		c-2.9,0.6-6,0.9-9.2,0.9H27.7v34H0V1.7H39.6z M30.9,42.9c1.5,0,2.7,0,3.5-0.1c0.9-0.1,2-0.3,3.2-0.6c1.3-0.3,2.2-0.8,2.9-1.5
		c0.7-0.6,1.3-1.6,1.8-2.9c0.5-1.3,0.8-2.8,0.8-4.6c0-1.3-0.1-2.5-0.4-3.5c-0.3-1-0.6-1.8-0.9-2.5c-0.3-0.6-0.9-1.2-1.6-1.7
		c-0.7-0.5-1.4-0.8-1.9-1c-0.5-0.2-1.3-0.4-2.4-0.5C35,24,34.2,24,33.6,24c-0.6,0-1.5,0-2.7,0h-3.2v18.9H30.9z"/>
	<path class="st32" d="M132.7,41.1h38.4v42.5c-4.4,4.8-10.4,8.4-18,10.9c-7.6,2.5-15.5,3.8-23.7,3.8c-6.7,0-13-1.1-18.9-3.2
		c-6-2.2-11.3-5.3-15.9-9.3c-4.7-4-8.4-9.2-11.1-15.5c-2.7-6.3-4.1-13.3-4.1-21.1c0-6.3,0.9-12.1,2.7-17.4c1.8-5.4,4.2-10,7.4-13.8
		c3.1-3.8,6.8-7.1,11-9.9c4.2-2.7,8.8-4.7,13.7-6.1c4.9-1.3,10-2,15.3-2c7.8,0,15.1,1.4,21.9,4.3c6.8,2.9,12.6,7,17.3,12.5
		l-18.6,18.5c-4.3-7.9-11.2-11.8-20.6-11.8c-6.7,0-11.9,2.1-15.6,6.3c-3.7,4.2-5.6,10.7-5.6,19.5c0,8.7,1.9,15.1,5.6,19.4
		c3.7,4.3,8.9,6.4,15.6,6.4c6.9,0,12.6-1.4,17-4.3v-8.5h-13.8V41.1z"/>
	<polygon class="st32" points="214.9,74.4 246.1,74.4 246.1,96.6 187.2,96.6 187.2,1.7 246.1,1.7 246.1,23.9 214.9,23.9 	"/>
	<polygon class="st33" points="325.8,1.2 295.8,1.2 262.8,96.1 290.8,96.1 310.7,32.6 330.7,96.1 358.8,96.1 	"/>
	<polygon class="st33" points="481.4,96.6 454.3,96.6 450.5,53.1 437.4,88.1 412.3,88.1 400,53.1 396.2,96.6 369,96.6 369.1,1.7 
		402.8,1.7 425.2,60.6 447.7,1.7 481.4,1.7 	"/>
	<g>
		<defs>
			<rect id="SVGID_2_" x="0.3" y="109.4" width="480.8" height="13.6"/>
		</defs>
		<clipPath id="SVGID_1_">
			<use xlink:href="#SVGID_2_"  style="overflow:visible;"/>
		</clipPath>
		<defs>
			<filter id="Adobe_OpacityMaskFilter" filterUnits="userSpaceOnUse" x="0.3" y="109.4" width="480.8" height="13.6">
				<feColorMatrix  type="matrix" values="1 0 0 0 0  0 1 0 0 0  0 0 1 0 0  0 0 0 1 0"/>
			</filter>
		</defs>
		<mask maskUnits="userSpaceOnUse" x="0.3" y="109.4" width="480.8" height="13.6" id="SVGID_3_">
			<g class="st34">
				
					<linearGradient id="SVGID_4_" gradientUnits="userSpaceOnUse" x1="-7734.4111" y1="1170.425" x2="-7731.7231" y2="1170.425" gradientTransform="matrix(178.8776 0 0 -178.8776 1383513.125 209479)">
					<stop  offset="0" style="stop-color:#FFFFFF"/>
					<stop  offset="0.1176" style="stop-color:#FBFBFB"/>
					<stop  offset="0.2421" style="stop-color:#EEEEEE"/>
					<stop  offset="0.37" style="stop-color:#D9D9D9"/>
					<stop  offset="0.5001" style="stop-color:#BBBBBB"/>
					<stop  offset="0.632" style="stop-color:#959595"/>
					<stop  offset="0.7654" style="stop-color:#666666"/>
					<stop  offset="0.8974" style="stop-color:#303030"/>
					<stop  offset="1" style="stop-color:#000000"/>
				</linearGradient>
				<rect x="0.3" y="109.4" style="clip-path:url(#SVGID_1_);fill:url(#SVGID_4_);" width="480.8" height="13.6"/>
			</g>
		</mask>
		
			<linearGradient id="SVGID_5_" gradientUnits="userSpaceOnUse" x1="-7734.4106" y1="1170.425" x2="-7731.7231" y2="1170.425" gradientTransform="matrix(178.8776 0 0 -178.8776 1383513 209478.9844)">
			<stop  offset="0" style="stop-color:#D81C36"/>
			<stop  offset="0.1383" style="stop-color:#D41E39"/>
			<stop  offset="0.2848" style="stop-color:#C72441"/>
			<stop  offset="0.4351" style="stop-color:#B22D4E"/>
			<stop  offset="0.5881" style="stop-color:#943A61"/>
			<stop  offset="0.7431" style="stop-color:#6E4C79"/>
			<stop  offset="0.8976" style="stop-color:#406096"/>
			<stop  offset="1" style="stop-color:#1D70AC"/>
		</linearGradient>
		
			<rect x="0.3" y="109.4" style="clip-path:url(#SVGID_1_);mask:url(#SVGID_3_);fill:url(#SVGID_5_);" width="480.8" height="13.6"/>
	</g>
	<g>
		<defs>
			<rect id="SVGID_7_" x="177.8" y="36.3" width="180.9" height="24.6"/>
		</defs>
		<clipPath id="SVGID_6_">
			<use xlink:href="#SVGID_7_"  style="overflow:visible;"/>
		</clipPath>
		<defs>
			<filter id="Adobe_OpacityMaskFilter_1_" filterUnits="userSpaceOnUse" x="177.8" y="36.3" width="180.9" height="24.6">
				<feColorMatrix  type="matrix" values="1 0 0 0 0  0 1 0 0 0  0 0 1 0 0  0 0 0 1 0"/>
			</filter>
		</defs>
		<mask maskUnits="userSpaceOnUse" x="177.8" y="36.3" width="180.9" height="24.6" id="SVGID_8_">
			<g class="st37">
				
					<linearGradient id="SVGID_9_" gradientUnits="userSpaceOnUse" x1="-7668.8018" y1="1180.0458" x2="-7666.1143" y2="1180.0458" gradientTransform="matrix(67.3161 0 0 -67.3161 516411.8438 79484.7578)">
					<stop  offset="0" style="stop-color:#FFFFFF"/>
					<stop  offset="0.2175" style="stop-color:#FCFCFC"/>
					<stop  offset="0.3531" style="stop-color:#F4F4F4"/>
					<stop  offset="0.4664" style="stop-color:#E5E5E5"/>
					<stop  offset="0.5674" style="stop-color:#D1D1D1"/>
					<stop  offset="0.6602" style="stop-color:#B6B6B6"/>
					<stop  offset="0.747" style="stop-color:#959595"/>
					<stop  offset="0.8292" style="stop-color:#6E6E6E"/>
					<stop  offset="0.9077" style="stop-color:#404040"/>
					<stop  offset="0.9807" style="stop-color:#0F0F0F"/>
					<stop  offset="1" style="stop-color:#000000"/>
				</linearGradient>
				<rect x="177.8" y="36.3" style="clip-path:url(#SVGID_6_);fill:url(#SVGID_9_);" width="180.9" height="24.6"/>
			</g>
		</mask>
		
			<linearGradient id="SVGID_10_" gradientUnits="userSpaceOnUse" x1="-7668.8018" y1="1180.0458" x2="-7666.1143" y2="1180.0458" gradientTransform="matrix(67.3161 0 0 -67.3161 516411.8438 79484.7578)">
			<stop  offset="0" style="stop-color:#1D70AC"/>
			<stop  offset="1" style="stop-color:#1D70AC"/>
		</linearGradient>
		
			<rect x="177.8" y="36.3" style="clip-path:url(#SVGID_6_);mask:url(#SVGID_8_);fill:url(#SVGID_10_);" width="180.9" height="24.6"/>
	</g>
</g>
</svg>
