<?xml version="1.0" encoding="utf-8"?>
<!-- Generator: Adobe Illustrator 23.0.2, SVG Export Plug-In . SVG Version: 6.00 Build 0)  -->
<svg version="1.1" id="Camada_1" xmlns="http://www.w3.org/2000/svg" xmlns:xlink="http://www.w3.org/1999/xlink" x="0px" y="0px"
	 viewBox="0 0 345 135" style="enable-background:new 0 0 345 135;" xml:space="preserve">
<style type="text/css">
	.st0{fill:#EEE30E;}
	.st1{fill:#FFFFFF;}
	.st2{fill:#13E559;}
	.st3{fill:#1B509A;}
	.st4{fill:#375DA7;}
	.st5{fill:url(#SVGID_1_);}
	.st6{opacity:0.28;fill:#9AC6FC;}
	.st7{opacity:0.7;fill:#9FCBFF;}
	.st8{fill:#39B5A9;}
	.st9{fill:#98E5DC;}
	.st10{fill:#F9BBC1;}
	.st11{opacity:0.17;fill:#F9BBC1;}
	.st12{fill:#03004D;}
	.st13{fill:#2440E4;}
	.st14{opacity:0.2;fill:#2440E4;}
	.st15{fill:#FF285A;}
	.st16{opacity:0.25;fill:#AF2045;}
	.st17{opacity:0.2;fill:#AF2045;}
	.st18{opacity:0.15;}
	.st19{fill:#AF2045;}
	.st20{opacity:0.36;fill:#F9BBC1;}
	.st21{opacity:0.77;fill:#2440E4;}
	.st22{opacity:0.44;fill:#03004D;}
	.st23{fill:#FFCB00;}
	.st24{fill:#2E78EC;}
	.st25{opacity:0.45;fill:#2E78EC;}
	.st26{opacity:0.31;fill:#2E78EC;}
	.st27{opacity:0.42;}
	.st28{opacity:0.52;fill:#FFCB00;}
	.st29{opacity:0.74;}
	.st30{fill:#12C649;}
	.st31{fill:#D81A36;}
	.st32{fill:#173051;}
	.st33{fill:#1D70AC;}
	.st34{filter:url(#Adobe_OpacityMaskFilter);}
	.st35{clip-path:url(#SVGID_3_);fill:url(#SVGID_5_);}
	.st36{clip-path:url(#SVGID_3_);mask:url(#SVGID_4_);fill:url(#SVGID_6_);}
	.st37{filter:url(#Adobe_OpacityMaskFilter_1_);}
	.st38{clip-path:url(#SVGID_8_);fill:url(#SVGID_10_);}
	.st39{clip-path:url(#SVGID_8_);mask:url(#SVGID_9_);fill:url(#SVGID_11_);}
</style>
<g>
	<polygon class="st0" points="54.9,9 63.6,-0.1 69,11.2 80,5.3 81.6,17.7 93.9,15.4 91.7,27.7 104.1,29.4 98.1,40.4 109.4,45.8 
		100.3,54.4 109.4,63 98.1,68.4 104.1,79.4 91.7,81.1 93.9,93.4 81.6,91.1 80,103.5 69,97.6 63.6,108.9 54.9,99.8 46.3,108.9 
		40.9,97.6 29.9,103.5 28.2,91.1 15.9,93.4 18.2,81.1 5.8,79.4 11.7,68.4 0.5,63 9.5,54.4 0.5,45.8 11.7,40.4 5.8,29.4 18.2,27.7 
		15.9,15.4 28.2,17.7 29.9,5.3 40.9,11.2 46.3,-0.1 	"/>
	<g>
		<path class="st1" d="M97.7,88.3l-6.2,46.7h-8.8l9-60.6h12l9,60.6h-8.8L97.7,88.3z"/>
		<path class="st1" d="M136.4,116l10.2-41.5h8.7v60.6h-8.4v-34l-7.5,34h-5.9l-7.7-34v34h-8.5V74.4h8.7L136.4,116z"/>
		<path class="st1" d="M174.9,88.3l-6.2,46.7h-8.8l9-60.6h12l9,60.6h-8.8L174.9,88.3z"/>
		<path class="st1" d="M214.7,79.7l-11.9,46.8h12.4v8.6H193v-5.3l11.9-46.8h-11.5v-8.6h21.3V79.7z"/>
		<path class="st1" d="M245.7,123.3c0,8.5-4.2,12.7-12.6,12.8c-8.4,0-12.5-4.3-12.5-12.8V86.2c0-8.5,4.2-12.7,12.5-12.7
			c8.4,0,12.6,4.2,12.6,12.7V123.3z M237,86.2c0-2.7-1.3-4.1-3.8-4.1h-0.1c-2.5,0-3.8,1.4-3.8,4.1v37.1c0,2.7,1.3,4.1,3.8,4.1
			c2.6,0,3.8-1.4,3.8-4.1V86.2z"/>
		<path class="st1" d="M252.5,74.4h8.7l8.3,35.2V74.4h8.1v60.6h-8.7l-8-34.1v34.1h-8.4V74.4z"/>
		<path class="st1" d="M297.3,88.3l-6.2,46.7h-8.8l9-60.6h12l9,60.6h-8.8L297.3,88.3z"/>
		<path class="st1" d="M325.1,117.2v6.1c0,2.7,1.3,4.1,3.8,4.1c2.5,0,3.8-1.4,3.8-4.1v-1.1c0-2.9-2.7-6.3-8.2-10.3
			c-5.5-3.9-8.2-8.6-8.2-14.2V86.2c0-8.5,4.2-12.7,12.5-12.7c8.4,0,12.6,4.2,12.6,12.7v8.2h-8.7v-8.2c0-2.7-1.3-4.1-3.8-4.1h-0.1
			c-2.5,0-3.8,1.4-3.8,4.1v11.3c0,2.7,2.7,6,8.2,9.9c5.5,3.9,8.2,8.6,8.2,14v1.9c0,8.5-4.2,12.8-12.5,12.8
			c-8.4,0-12.6-4.3-12.6-12.8v-6.1H325.1z"/>
	</g>
	<path class="st2" d="M328.6,37.3H97.6c-8.9,0-16.1,7.2-16.1,16.1c0,8.9,7.2,16.1,16.1,16.1h230.9c8.9,0,16.1-7.2,16.1-16.1
		C344.7,44.6,337.5,37.3,328.6,37.3"/>
	<polygon class="st3" points="68.1,28.5 43.6,55.2 44,70 84.4,25.9 	"/>
	<polygon class="st4" points="32.1,43.7 24.9,50.9 44,70 43.6,55.2 	"/>
	<polygon class="st1" points="14.7,62.9 24.9,52.7 44,71.7 84.5,27.6 95.1,37.4 44.5,92.7 	"/>
	<path class="st3" d="M84.6,29.3l8.8,8.2L44.5,90.9l-28-28l8.5-8.5l17.3,17.3l1.8,1.8l1.7-1.9L84.6,29.3z M84.4,25.9L44,70l-19.1-19
		L13,62.9l31.5,31.5l52.3-57.1L84.4,25.9z"/>
	<path class="st3" d="M113.7,50.8c0-3.7-2.8-6.1-6.7-6.1H96.9V63h4.6v-6.1h3.9l4.9,6.1h5.5l-5.7-7.1C112.3,55,113.7,53.2,113.7,50.8
		 M106.8,52.9h-5.4v-4.1h5.3c1.4,0,2.2,0.8,2.2,2.1C109,52.1,108.2,52.9,106.8,52.9"/>
	<polygon class="st3" points="127,55.7 134.5,55.7 134.5,51.6 127,51.6 127,48.8 137.6,48.8 137.6,44.7 122.3,44.7 122.3,63 
		137.8,63 137.8,59 127,59 	"/>
	<path class="st3" d="M152.8,56.7h7c-0.7,1.7-2.4,2.6-5.2,2.6c-3.9,0-6.1-2-6.1-5.5c0-3.3,2.4-5.2,6.1-5.2c2.8,0,4.5,1,5.1,2.8
		l4.6-1.2c-1.1-3.6-4.9-5.7-9.7-5.7c-6.4,0-10.8,4-10.8,9.4c0,5.6,4.2,9.5,10.8,9.5c6.2,0,10.1-3.6,10.1-8.5v-2.1h-11.9V56.7z"/>
	<path class="st3" d="M185.3,55.8c0,2.1-1.7,3.4-4.2,3.4c-2.5,0-4.2-1.4-4.2-3.4v-11h-4.6v11c0,4.6,3.6,7.6,8.8,7.6
		c5.2,0,8.8-3,8.8-7.6v-11h-4.6V55.8z"/>
	<polygon class="st3" points="203.4,44.7 198.8,44.7 198.8,63 213.1,63 213.1,58.9 203.4,58.9 	"/>
	<path class="st3" d="M227.1,44.7L218.9,63h4.7l1.8-4.2h8.2l1.8,4.2h4.9l-8.2-18.3H227.1z M227.2,54.7l2.4-5.5l2.3,5.5H227.2z"/>
	<path class="st3" d="M263.8,50.8c0-3.7-2.8-6.1-6.7-6.1H247V63h4.6v-6.1h3.9l4.9,6.1h5.5l-5.7-7.1C262.4,55,263.8,53.2,263.8,50.8
		 M257,52.9h-5.4v-4.1h5.3c1.4,0,2.2,0.8,2.2,2.1C259.1,52.1,258.3,52.9,257,52.9"/>
	<rect x="272.5" y="44.7" class="st3" width="4.6" height="18.3"/>
	<polygon class="st3" points="285.1,48.8 294.7,48.8 284.5,61.6 284.5,63 301.9,63 301.9,58.9 291.9,58.9 302,46.1 302,44.7 
		285.1,44.7 	"/>
	<path class="st3" d="M321.2,44.7h-5.1L307.9,63h4.7l1.8-4.2h8.2l1.8,4.2h4.9L321.2,44.7z M316.2,54.7l2.4-5.5l2.3,5.5H316.2z"/>
</g>
</svg>
